<?xml version="1.0" encoding="UTF-8" standalone="no"?>
<svg
   width="256"
   height="256"
   viewBox="0 0 67.733332 67.733333"
   version="1.1"
   id="svg114362"
   xml:space="preserve"
   fill="#e8e8e8"
   sodipodi:docname="logo.svg"
   inkscape:version="1.4.2 (ebf0e940d0, 2025-05-08)"
   xmlns:inkscape="http://www.inkscape.org/namespaces/inkscape"
   xmlns:sodipodi="http://sodipodi.sourceforge.net/DTD/sodipodi-0.dtd"
   xmlns="http://www.w3.org/2000/svg"
   xmlns:svg="http://www.w3.org/2000/svg"><defs
   id="defs5" /><sodipodi:namedview
   id="namedview5"
   pagecolor="#ffffff"
   bordercolor="#000000"
   borderopacity="0.25"
   inkscape:showpageshadow="2"
   inkscape:pageopacity="0.0"
   inkscape:pagecheckerboard="0"
   inkscape:deskcolor="#d1d1d1"
   inkscape:zoom="3.4257812"
   inkscape:cx="127.7081"
   inkscape:cy="165.36374"
   inkscape:window-width="1920"
   inkscape:window-height="1128"
   inkscape:window-x="0"
   inkscape:window-y="0"
   inkscape:window-maximized="1"
   inkscape:current-layer="svg114362" />
   <g
   id="layer1"
   style="fill-opacity:1;fill:#000000"><g
     transform="translate(-0.82564433,1.7128157)"
     id="g5"
     style="fill-opacity:1;fill:#000000"><g
       transform="translate(-22.01498,-318.59558)"
       id="g4"
       style="fill-opacity:1;fill:#000000"><path
         style="stroke-width:0.352777;fill-opacity:1;fill:#000000"
         d="m 61.956425,335.72628 c -0.120434,-0.003 -0.232793,0.0205 -0.334863,0.0703 -0.513108,0.25049 -0.643757,1.12856 -0.42168,2.25619 l -29.287618,5.25549 c -0.305939,0 -0.594916,0.24804 -0.644922,0.55398 l -3.42253,21.24831 c -0.05001,0.30594 0.157599,0.55397 0.463538,0.55397 h 20.641634 c 0.217108,0 0.421057,-0.128 0.541569,-0.30954 l 0.0057,0.007 0.829924,-1.31103 c -0.173469,-0.11477 -0.337157,-0.24508 -0.474907,-0.40721 -0.424896,-0.49975 -0.607692,-1.15756 -0.501778,-1.80454 l 2.144572,-13.10049 h 6.838859 l -0.596863,3.60805 2.248959,-3.55172 0.0098,-0.0563 h 0.02584 l 3.782198,-5.97431 c 0.549137,0.46123 1.069717,0.65455 1.448491,0.46974 0.321656,-0.15704 0.490854,-0.56311 0.519348,-1.12035 -0.778086,-0.35659 -1.620086,-1.39202 -2.231388,-2.64428 -0.607685,-1.24472 -0.893255,-2.54767 -0.728638,-3.40289 0.04161,0.0288 0.08346,0.0592 0.125574,0.0915 -0.353207,-0.27057 -0.690586,-0.42587 -0.980819,-0.43201 z m 0.994255,0.44235 c 0.06518,0.0504 0.130849,0.1046 0.196887,0.16278 -0.06598,-0.0582 -0.131773,-0.11241 -0.196887,-0.16278 z m 0.196887,0.16278 c 0.04532,0.0399 0.09085,0.0816 0.136426,0.12506 -0.04564,-0.0436 -0.09105,-0.085 -0.136426,-0.12506 z m 0.204638,0.19172 c 0.04405,0.0436 0.0887,0.0887 0.132809,0.13539 -0.04421,-0.0469 -0.08866,-0.0916 -0.132809,-0.13539 z m 0.20774,0.21652 c 0.04039,0.0444 0.08062,0.0906 0.120923,0.13746 -0.04036,-0.047 -0.08047,-0.0929 -0.120923,-0.13746 z m 0.203088,0.23513 c 0.03022,0.0365 0.06034,0.0738 0.09043,0.11162 -0.03017,-0.038 -0.06014,-0.075 -0.09043,-0.11162 z m 0.205155,0.25942 c 0.02197,0.0291 0.04429,0.0586 0.06615,0.0884 -0.02201,-0.03 -0.04402,-0.0591 -0.06615,-0.0884 z m 0.208256,0.28783 c 0.01884,0.0273 0.03709,0.0549 0.05581,0.0827 -0.01865,-0.0277 -0.03704,-0.0555 -0.05581,-0.0827 z m 0.195337,0.29611 c 0.01432,0.0226 0.02867,0.0453 0.04289,0.0682 -0.01421,-0.0229 -0.02859,-0.0456 -0.04289,-0.0682 z m 0.36742,0.63045 c 0.0081,0.0151 0.01626,0.0303 0.02429,0.0455 -0.008,-0.0152 -0.01622,-0.0304 -0.02429,-0.0455 z m 0.76016,1.8278 c 0.0056,0.0188 0.01058,0.0376 0.01602,0.0563 -0.0055,-0.0188 -0.01038,-0.0375 -0.01602,-0.0563 z m 0.0956,0.34933 c 0.005,0.02 0.0097,0.0401 0.01447,0.0599 -0.0048,-0.02 -0.0094,-0.0399 -0.01447,-0.0599 z m 0.06873,0.30489 c 0.0084,0.0411 0.01633,0.082 0.02377,0.12247 -0.0075,-0.0405 -0.01536,-0.0813 -0.02377,-0.12247 z m 0.06098,0.3452 c 0.0048,0.033 0.0093,0.0657 0.01344,0.0982 -0.0042,-0.0325 -0.0086,-0.0651 -0.01344,-0.0982 z m 0.03359,0.28629 c 0.0038,0.042 0.0072,0.0836 0.0098,0.12454 -0.0026,-0.0409 -0.006,-0.0825 -0.0098,-0.12454 z m 0.01602,0.26716 c 0.0018,0.0605 0.0026,0.11959 0.0015,0.17725 0.001,-0.0576 2.52e-4,-0.11675 -0.0015,-0.17725 z m -31.021879,4.07056 H 49.01303 c 0.17145,0 0.319349,0.0637 0.417029,0.17828 0.09753,0.11461 0.13632,0.27081 0.10852,0.43977 l -0.569474,3.48816 h -11.45925 l -1.508952,9.06559 h 7.361825 l 0.56534,-3.47834 -1.467611,-2.18281 h 5.325773 c 0.171139,0 0.319349,0.0632 0.417029,0.17777 0.09784,0.11523 0.136838,0.27184 0.109038,0.4408 l -1.522388,9.14828 H 31.869373 c -0.173935,0 -0.324302,-0.0644 -0.42323,-0.18087 -0.09955,-0.11709 -0.138698,-0.27571 -0.110588,-0.447 l 2.639632,-15.98817 c 0.05855,-0.35843 0.414281,-0.66146 0.777214,-0.66146 z"
         id="path1" /><path
         d="m 61.041885,349.97473 -1.51401,9.05005 h -4.147258 l 1.49646,-9.05005 h -4.331753 l -1.975403,12.06393 c -0.09908,0.60551 0.368214,1.15574 0.981955,1.15574 h 10.905559 c 0.487018,0 0.902442,-0.35269 0.981645,-0.83334 l 2.040317,-12.38633 z"
         style="stroke-width:0.352777;fill-opacity:1;fill:#000000"
         id="path2" /><path
         style="stroke-width:0.352777;fill-opacity:1;fill:#000000"
         d="m 69.898576,332.33579 c -0.168714,0.005 -0.322038,0.0362 -0.454236,0.091 l -7.822778,3.36982 c 0.816561,-0.39865 2.291608,0.94289 3.294372,2.99671 1.002454,2.05398 1.152974,4.04243 0.336414,4.44108 l 2.109949,-1.15756 0.783414,-4.72426 c 0.146137,-0.90352 0.845824,-1.59761 1.718758,-1.75958 -0.38778,0.32084 -0.663376,0.77562 -0.748791,1.3038 l -4.289144,26.29762 h 4.294312 l 4.02611,-24.47138 c 0.526929,-0.75708 0.689505,-2.26803 -0.135909,-3.95893 -0.845951,-1.73291 -2.201414,-2.45546 -3.112471,-2.42827 z m 1.397847,4.30826 c 0.359362,0 0.650607,0.29125 0.650607,0.65061 0,0.35936 -0.291245,0.65112 -0.650607,0.65112 -0.35936,0 -0.650606,-0.29176 -0.650606,-0.65112 0,-0.35936 0.291246,-0.65061 0.650606,-0.65061 z"
         id="path3" /><path
         d="m 80.592967,354.24543 -0.793888,4.77933 h -4.127381 l 0.793423,-4.80511 z m -7.813557,-4.27072 -3.053954,19.18905 h 4.293861 l 0.969376,-5.96938 h 7.790728 c 0.488571,0 0.904772,-0.35486 0.982266,-0.83722 l 1.80271,-11.22982 c 0.09706,-0.60474 -0.369922,-1.15263 -0.982421,-1.15263 z"
         style="stroke-width:0.352777;fill-opacity:1;fill:#000000"
         id="path4" /></g></g></g></svg>
